<?xml version="1.0" encoding="UTF-8" standalone="no"?>
<!DOCTYPE svg PUBLIC "-//W3C//DTD SVG 1.1//EN"
 "http://www.w3.org/Graphics/SVG/1.1/DTD/svg11.dtd">
<!-- Generated by graphviz version 2.48.0 (0)
 -->
<!-- Title: G Pages: 1 -->
<svg width="477pt" height="134pt"
 viewBox="0.00 0.00 477.20 133.74" xmlns="http://www.w3.org/2000/svg" xmlns:xlink="http://www.w3.org/1999/xlink">
<g id="graph0" class="graph" transform="scale(1 1) rotate(0) translate(4 129.74)">
<title>G</title>
<polygon fill="white" stroke="transparent" points="-4,4 -4,-129.74 473.2,-129.74 473.2,4 -4,4"/>
<!-- A -->
<g id="node1" class="node">
<title>A</title>
<ellipse fill="none" stroke="green" cx="46.67" cy="-98.87" rx="46.84" ry="26.74"/>
<text text-anchor="middle" x="46.67" y="-102.67" font-family="Times,serif" font-size="14.00">KMR</text>
<text text-anchor="middle" x="46.67" y="-87.67" font-family="Times,serif" font-size="14.00">Renderer</text>
</g>
<!-- B -->
<g id="node2" class="node">
<title>B</title>
<ellipse fill="none" stroke="black" cx="218.33" cy="-62.87" rx="38.99" ry="18"/>
<text text-anchor="middle" x="218.33" y="-59.17" font-family="Times,serif" font-size="14.00">Overlay</text>
</g>
<!-- A&#45;&gt;B -->
<g id="edge1" class="edge">
<title>A&#45;&gt;B</title>
<path fill="none" stroke="black" d="M90.92,-89.69C115.95,-84.38 147.38,-77.71 172.65,-72.35"/>
<polygon fill="black" stroke="black" points="173.65,-75.72 182.7,-70.22 172.2,-68.87 173.65,-75.72"/>
<text text-anchor="middle" x="136.34" y="-88.27" font-family="Cantarell" font-size="12.00">SkPicture</text>
</g>
<!-- D -->
<g id="node4" class="node">
<title>D</title>
<ellipse fill="none" stroke="red" cx="406.26" cy="-62.87" rx="62.87" ry="26.74"/>
<text text-anchor="middle" x="406.26" y="-66.67" font-family="Times,serif" font-size="14.00">DrawContext</text>
<text text-anchor="middle" x="406.26" y="-51.67" font-family="Times,serif" font-size="14.00">(Vulkan)</text>
</g>
<!-- B&#45;&gt;D -->
<g id="edge3" class="edge">
<title>B&#45;&gt;D</title>
<path fill="none" stroke="black" d="M257.41,-62.87C279.17,-62.87 307.18,-62.87 332.96,-62.87"/>
<polygon fill="black" stroke="black" points="333.09,-66.37 343.09,-62.87 333.09,-59.37 333.09,-66.37"/>
<text text-anchor="middle" x="300.33" y="-66.27" font-family="Cantarell" font-size="12.00">SkPicture</text>
</g>
<!-- C -->
<g id="node3" class="node">
<title>C</title>
<ellipse fill="none" stroke="green" cx="46.67" cy="-26.87" rx="46.84" ry="26.74"/>
<text text-anchor="middle" x="46.67" y="-30.67" font-family="Times,serif" font-size="14.00">ImGui</text>
<text text-anchor="middle" x="46.67" y="-15.67" font-family="Times,serif" font-size="14.00">Renderer</text>
</g>
<!-- C&#45;&gt;B -->
<g id="edge2" class="edge">
<title>C&#45;&gt;B</title>
<path fill="none" stroke="black" d="M90.92,-36.05C115.95,-41.36 147.38,-48.03 172.65,-53.39"/>
<polygon fill="black" stroke="black" points="172.2,-56.87 182.7,-55.52 173.65,-50.02 172.2,-56.87"/>
<text text-anchor="middle" x="136.34" y="-54.27" font-family="Cantarell" font-size="12.00">SkPicture</text>
</g>
</g>
</svg>
