<?xml version="1.0" encoding="UTF-8" standalone="no"?>
<!DOCTYPE svg PUBLIC "-//W3C//DTD SVG 1.1//EN"
 "http://www.w3.org/Graphics/SVG/1.1/DTD/svg11.dtd">
<!-- Generated by graphviz version 2.48.0 (0)
 -->
<!-- Title: G Pages: 1 -->
<svg width="675pt" height="134pt"
 viewBox="0.00 0.00 674.61 133.74" xmlns="http://www.w3.org/2000/svg" xmlns:xlink="http://www.w3.org/1999/xlink">
<g id="graph0" class="graph" transform="scale(1 1) rotate(0) translate(4 129.74)">
<title>G</title>
<polygon fill="white" stroke="transparent" points="-4,4 -4,-129.74 670.61,-129.74 670.61,4 -4,4"/>
<!-- A -->
<g id="node1" class="node">
<title>A</title>
<ellipse fill="none" stroke="green" cx="238.54" cy="-98.87" rx="46.84" ry="26.74"/>
<text text-anchor="middle" x="238.54" y="-102.67" font-family="Times,serif" font-size="14.00">KMR</text>
<text text-anchor="middle" x="238.54" y="-87.67" font-family="Times,serif" font-size="14.00">Renderer</text>
</g>
<!-- B -->
<g id="node2" class="node">
<title>B</title>
<ellipse fill="none" stroke="black" cx="415.74" cy="-62.87" rx="38.99" ry="18"/>
<text text-anchor="middle" x="415.74" y="-59.17" font-family="Times,serif" font-size="14.00">Overlay</text>
</g>
<!-- A&#45;&gt;B -->
<g id="edge1" class="edge">
<title>A&#45;&gt;B</title>
<path fill="none" stroke="black" d="M282.85,-89.97C309.36,-84.52 343.21,-77.57 369.98,-72.07"/>
<polygon fill="black" stroke="black" points="370.77,-75.48 379.86,-70.04 369.36,-68.62 370.77,-75.48"/>
<text text-anchor="middle" x="332.75" y="-87.27" font-family="Cantarell" font-size="12.00">SkPicture</text>
</g>
<!-- D -->
<g id="node4" class="node">
<title>D</title>
<ellipse fill="none" stroke="red" cx="603.67" cy="-62.87" rx="62.87" ry="26.74"/>
<text text-anchor="middle" x="603.67" y="-66.67" font-family="Times,serif" font-size="14.00">DrawContext</text>
<text text-anchor="middle" x="603.67" y="-51.67" font-family="Times,serif" font-size="14.00">(Raster)</text>
</g>
<!-- B&#45;&gt;D -->
<g id="edge4" class="edge">
<title>B&#45;&gt;D</title>
<path fill="none" stroke="black" d="M454.82,-62.87C476.58,-62.87 504.59,-62.87 530.37,-62.87"/>
<polygon fill="black" stroke="black" points="530.49,-66.37 540.49,-62.87 530.49,-59.37 530.49,-66.37"/>
<text text-anchor="middle" x="497.74" y="-66.27" font-family="Cantarell" font-size="12.00">SkPicture</text>
</g>
<!-- C -->
<g id="node3" class="node">
<title>C</title>
<ellipse fill="none" stroke="green" cx="46.67" cy="-26.87" rx="46.84" ry="26.74"/>
<text text-anchor="middle" x="46.67" y="-30.67" font-family="Times,serif" font-size="14.00">ImGui</text>
<text text-anchor="middle" x="46.67" y="-15.67" font-family="Times,serif" font-size="14.00">Renderer</text>
</g>
<!-- E -->
<g id="node5" class="node">
<title>E</title>
<ellipse fill="none" stroke="black" cx="238.54" cy="-26.87" rx="50.41" ry="26.74"/>
<text text-anchor="middle" x="238.54" y="-30.67" font-family="Times,serif" font-size="14.00">ImGui</text>
<text text-anchor="middle" x="238.54" y="-15.67" font-family="Times,serif" font-size="14.00">Rasterizer</text>
</g>
<!-- C&#45;&gt;E -->
<g id="edge2" class="edge">
<title>C&#45;&gt;E</title>
<path fill="none" stroke="black" d="M93.63,-26.87C118.94,-26.87 150.63,-26.87 177.83,-26.87"/>
<polygon fill="black" stroke="black" points="178.01,-30.37 188.01,-26.87 178.01,-23.37 178.01,-30.37"/>
<text text-anchor="middle" x="140.84" y="-30.27" font-family="Cantarell" font-size="12.00">DrawCmds</text>
</g>
<!-- E&#45;&gt;B -->
<g id="edge3" class="edge">
<title>E&#45;&gt;B</title>
<path fill="none" stroke="black" d="M285.57,-36.33C311.62,-41.68 344.05,-48.34 369.9,-53.65"/>
<polygon fill="black" stroke="black" points="369.31,-57.11 379.81,-55.69 370.72,-50.25 369.31,-57.11"/>
<text text-anchor="middle" x="332.75" y="-55.27" font-family="Cantarell" font-size="12.00">SkBitmap</text>
</g>
</g>
</svg>
